<svg width="79" height="60" viewBox="0 0 79 60" fill="none" xmlns="http://www.w3.org/2000/svg">
<path d="M70.389 12.447L74.271 32.62C74.3347 32.9512 74.3239 33.2925 74.2393 33.6191C74.1547 33.9457 73.9985 34.2493 73.782 34.508C73.5639 34.7681 73.2913 34.9771 72.9836 35.1204C72.6759 35.2636 72.3404 35.3376 72.001 35.337H69.258C68.8091 35.3402 68.3691 35.2126 67.9915 34.9699C67.614 34.7271 67.3153 34.3797 67.132 33.97L57.676 12.408C57.5072 12.0302 57.4448 11.6135 57.4955 11.2029C57.5463 10.7922 57.7083 10.4033 57.964 10.078C58.2224 9.75135 58.5639 9.50027 58.9528 9.35107C59.3416 9.20187 59.7634 9.16004 60.174 9.22998L68.492 10.612C68.9583 10.6861 69.3905 10.902 69.7299 11.2303C70.0693 11.5586 70.2994 11.9834 70.389 12.447Z" fill="#FF4880"/>
<path d="M8.652 13.464L4.77 33.638C4.70625 33.97 4.71733 34.3119 4.80244 34.6391C4.88755 34.9662 5.04455 35.2702 5.262 35.529C5.48093 35.7892 5.7544 35.9981 6.06305 36.1408C6.37169 36.2836 6.70795 36.3567 7.048 36.355H9.823C10.2711 36.3559 10.7098 36.2265 11.0856 35.9825C11.4615 35.7386 11.7583 35.3906 11.94 34.981L21.365 13.433C21.5331 13.0548 21.5947 12.6378 21.543 12.2272C21.4914 11.8165 21.3285 11.4278 21.072 11.103C20.8136 10.7764 20.4721 10.5253 20.0832 10.3761C19.6944 10.2269 19.2726 10.1851 18.862 10.255L10.544 11.637C10.0795 11.7114 9.64898 11.9264 9.31049 12.2531C8.972 12.5798 8.74183 13.0024 8.651 13.464H8.652Z" fill="#FF4880"/>
<path d="M31.295 32.9229C33.5809 32.9229 35.434 31.0873 35.434 28.8229C35.434 26.5585 33.5809 24.7229 31.295 24.7229C29.0091 24.7229 27.156 26.5585 27.156 28.8229C27.156 31.0873 29.0091 32.9229 31.295 32.9229Z" fill="#282828" stroke="white" stroke-linecap="round" stroke-linejoin="round"/>
<path d="M47.85 32.9229C50.1359 32.9229 51.989 31.0873 51.989 28.8229C51.989 26.5585 50.1359 24.7229 47.85 24.7229C45.5641 24.7229 43.711 26.5585 43.711 28.8229C43.711 31.0873 45.5641 32.9229 47.85 32.9229Z" fill="#282828" stroke="white" stroke-linecap="round" stroke-linejoin="round"/>
<path d="M76.813 21.505C76.4998 18.6415 75.3634 15.9303 73.5412 13.6994C71.719 11.4684 69.2892 9.81354 66.546 8.93495L52.911 4.53495C48.3475 1.97107 43.1485 0.758988 37.9216 1.04037C32.6947 1.32175 27.6559 3.08496 23.394 6.12395L12.454 9.65195C9.71254 10.5282 7.28378 12.1803 5.46165 14.4081C3.63951 16.636 2.50208 19.3441 2.187 22.205L1 32.383V32.669C1.00873 34.5201 1.75194 36.2921 3.06634 37.5956C4.38074 38.8991 6.15884 39.6276 8.01 39.621H8.058C9.33064 39.6189 10.5785 39.2693 11.667 38.6098C12.7554 37.9503 13.643 37.0061 14.234 35.879L15.951 32.698L18.181 42.709C18.1734 42.7792 18.1904 42.8498 18.229 42.909C19.6589 47.59 22.5617 51.6844 26.5055 54.5832C30.4493 57.482 35.2235 59.0304 40.118 58.998C45.3187 58.9911 50.3631 57.219 54.4255 53.9718C58.4879 50.7245 61.3277 46.1944 62.48 41.123C62.4737 41.0415 62.4874 40.9598 62.52 40.885L63.482 32.785L64.733 35.169C65.3221 36.3034 66.2107 37.2549 67.3022 37.9202C68.3938 38.5855 69.6467 38.9392 70.925 38.943H70.973C72.8352 38.9467 74.6232 38.2137 75.947 36.9039C76.5984 36.2595 77.1153 35.4922 77.4677 34.6464C77.8202 33.8006 78.0011 32.8932 78 31.977L76.813 21.505ZM9.727 33.559C9.56641 33.8694 9.32375 34.1299 9.02542 34.312C8.7271 34.4941 8.38453 34.591 8.035 34.592C7.7818 34.6024 7.52926 34.559 7.29412 34.4645C7.05897 34.37 6.84657 34.2267 6.671 34.044C6.33711 33.7175 6.13706 33.2782 6.11 32.812L7.256 22.745C7.46134 20.8557 8.21018 19.0665 9.41179 17.5942C10.6134 16.1219 12.2162 15.0297 14.026 14.45L21.157 12.15L9.727 33.559ZM57.475 40.185C56.6515 43.6874 54.7876 46.8588 52.1283 49.2824C49.469 51.7059 46.1387 53.2682 42.575 53.764C42.575 53.7239 42.575 53.685 42.575 53.637V48.075C42.5824 47.9584 42.5824 47.8415 42.575 47.725C45.475 46.93 47.524 45.039 47.524 42.783C47.524 39.859 44.091 37.491 39.848 37.491C35.605 37.491 32.172 39.875 32.172 42.783C32.172 45 34.153 46.899 36.985 47.683C36.9759 47.8125 36.9759 47.9424 36.985 48.072V53.634C33.7885 53.0928 30.8037 51.6788 28.3602 49.5481C25.9166 47.4174 24.1094 44.653 23.138 41.56L19.656 25.772L28.756 8.73695C32.0367 6.96898 35.7052 6.04361 39.432 6.04395C43.4552 6.05901 47.4023 7.1419 50.87 9.18195L59.292 24.946L57.475 40.185ZM72.338 33.32C71.9656 33.6632 71.4804 33.8581 70.974 33.868C70.6196 33.8658 70.2727 33.7661 69.9714 33.5796C69.6701 33.3931 69.426 33.1272 69.266 32.811L57.836 11.439L64.967 13.739C66.7795 14.3203 68.3846 15.4149 69.5876 16.89C70.7906 18.3652 71.54 20.1575 71.745 22.05L72.892 32.085C72.8657 32.5513 72.6655 32.9909 72.331 33.317L72.338 33.32Z" fill="#282828" stroke="white" stroke-width="1.5" stroke-linecap="round" stroke-linejoin="round"/>
</svg>
