<svg width="18" height="18" viewBox="0 0 18 18" fill="none" xmlns="http://www.w3.org/2000/svg">
<path d="M16.511 13.608C15.6711 12.8879 14.7478 12.2711 13.761 11.771C12.845 11.31 12.77 11.271 12.05 11.807C11.57 12.164 11.25 12.483 10.689 12.363C9.60508 11.9764 8.6281 11.3387 7.83799 10.502C6.99007 9.7014 6.33965 8.71482 5.93799 7.62C5.81799 7.06 6.13799 6.745 6.49499 6.264C6.99499 5.586 6.955 5.473 6.53 4.557C6.03831 3.56503 5.41723 2.64266 4.683 1.814C4.036 1.175 4.03599 1.288 3.61899 1.461C3.2795 1.60394 2.9538 1.77767 2.64599 1.98C2.14131 2.26565 1.73326 2.69528 1.47399 3.214C1.23999 3.714 1.135 4.886 2.343 7.081C3.32307 8.96995 4.61104 10.6824 6.15399 12.148C7.64236 13.666 9.35415 14.9475 11.23 15.948C13.67 17.315 14.606 17.048 15.107 16.815C15.6266 16.5578 16.0574 16.151 16.344 15.647C16.5468 15.3397 16.7209 15.0143 16.864 14.675C17.038 14.255 17.151 14.255 16.511 13.608Z" stroke="#FF4880" stroke-width="1.3" stroke-miterlimit="10"/>
</svg>
