<svg width="16" height="17" viewBox="0 0 16 17" xmlns="http://www.w3.org/2000/svg">
<path fill-rule="evenodd" clip-rule="evenodd" d="M13.669 3.32501C12.3094 1.95196 10.4964 1.12092 8.56876 0.9872C6.6411 0.853477 4.73071 1.42621 3.19457 2.59838C1.65842 3.77055 0.601634 5.46195 0.221684 7.35651C-0.158267 9.25107 0.164619 11.2192 1.13 12.893L0 17.001L4.223 15.901C5.39199 16.5342 6.70055 16.8655 8.03 16.865C10.1381 16.8679 12.1612 16.0344 13.6554 14.5473C15.1497 13.0602 15.9929 11.0411 16 8.933C16.0026 7.89039 15.7979 6.85767 15.3977 5.89491C14.9975 4.93215 14.4099 4.05857 13.669 3.32501ZM12.033 10.491C11.833 10.391 10.854 9.91201 10.673 9.84601C10.492 9.78001 10.358 9.74601 10.225 9.946C10.092 10.146 9.711 10.589 9.595 10.723C9.479 10.857 9.363 10.872 9.164 10.772C8.57776 10.5395 8.03638 10.2069 7.564 9.789C7.12918 9.38893 6.75612 8.92657 6.457 8.41701C6.341 8.21701 6.444 8.111 6.544 8.017C6.644 7.923 6.744 7.786 6.844 7.67C6.92632 7.56992 6.99369 7.45843 7.044 7.33901C7.07046 7.28442 7.08286 7.22408 7.08006 7.16347C7.07727 7.10287 7.05937 7.04393 7.028 6.99201C6.978 6.89201 6.58 5.91801 6.414 5.52101C6.248 5.12401 6.088 5.18701 5.966 5.18101C5.844 5.17501 5.716 5.17401 5.584 5.17401C5.48319 5.17659 5.384 5.19996 5.29264 5.24263C5.20127 5.2853 5.11969 5.34637 5.053 5.42201C4.82767 5.63362 4.64901 5.88995 4.52847 6.1746C4.40793 6.45924 4.34817 6.76593 4.353 7.07501C4.41878 7.82258 4.70133 8.5347 5.166 9.12401C6.02077 10.399 7.19246 11.4297 8.566 12.115C8.93679 12.2737 9.31564 12.4129 9.701 12.532C10.1072 12.6551 10.5365 12.6822 10.955 12.611C11.2319 12.5551 11.4942 12.4426 11.7254 12.2805C11.9567 12.1183 12.152 11.9102 12.299 11.669C12.4289 11.3731 12.4692 11.0456 12.415 10.727C12.365 10.64 12.233 10.59 12.033 10.491Z"/>
</svg>
