<svg width="66" height="55" viewBox="0 0 66 55" fill="none" xmlns="http://www.w3.org/2000/svg">
<path d="M43.418 43.6131C44.0497 43.6131 44.6556 43.8641 45.1023 44.3108C45.549 44.7575 45.8 45.3634 45.8 45.9951V48.9491H53.272C53.6957 48.9477 54.1142 48.8554 54.4991 48.6784C54.8841 48.5014 55.2267 48.2439 55.5036 47.9233C55.7806 47.6026 55.9856 47.2263 56.1046 46.8196C56.2237 46.413 56.2542 45.9855 56.194 45.5661L54.686 35.0371H10.838L9.33796 45.5981C9.27898 46.0169 9.31038 46.4435 9.43004 46.8492C9.5497 47.2548 9.75485 47.6301 10.0317 47.9499C10.3085 48.2696 10.6506 48.5264 11.035 48.7029C11.4193 48.8794 11.837 48.9715 12.26 48.9731H19.732V45.9871C19.732 45.3554 19.9829 44.7495 20.4296 44.3028C20.8763 43.8561 21.4822 43.6051 22.114 43.6051C22.7457 43.6051 23.3516 43.8561 23.7983 44.3028C24.245 44.7495 24.496 45.3554 24.496 45.9871V48.9371H30.38V45.9871C30.38 45.3554 30.6309 44.7495 31.0776 44.3028C31.5243 43.8561 32.1302 43.6051 32.762 43.6051C33.3937 43.6051 33.9996 43.8561 34.4463 44.3028C34.893 44.7495 35.144 45.3554 35.144 45.9871V48.9371H41.052V45.9871C41.0541 45.3595 41.3037 44.7581 41.7468 44.3136C42.1898 43.869 42.7904 43.6173 43.418 43.6131Z" fill="#FF4880"/>
<path d="M12.2119 53.7521C11.106 53.7505 10.0132 53.5117 9.00743 53.0518C8.00161 52.592 7.10612 51.9218 6.38135 51.0864C5.65659 50.251 5.11941 49.2699 4.80607 48.2093C4.49273 47.1487 4.4105 46.0332 4.56494 44.9381L6.04994 34.6151L5.83594 34.4801C4.40794 33.9087 3.18395 32.9225 2.32193 31.6488C1.45991 30.375 0.999438 28.8721 0.999939 27.3341V21.9901C1.00417 19.943 1.81977 17.9812 3.26799 16.5345C4.71621 15.0877 6.67891 14.2742 8.72594 14.2721H17.2259L17.2659 14.0341C17.8972 10.3851 19.7968 7.07638 22.6298 4.69148C25.4627 2.30658 29.0468 0.998779 32.7499 0.998779C36.4531 0.998779 40.0372 2.30658 42.8701 4.69148C45.703 7.07638 47.6027 10.3851 48.2339 14.0341L48.2739 14.2801H56.7739C57.7896 14.2769 58.7959 14.4738 59.7354 14.8596C60.675 15.2453 61.5293 15.8124 62.2497 16.5283C62.9701 17.2443 63.5425 18.0951 63.9341 19.0322C64.3256 19.9693 64.5288 20.9744 64.5319 21.9901V27.3341C64.5324 28.8721 64.072 30.375 63.2099 31.6488C62.3479 32.9225 61.1239 33.9087 59.6959 34.4801L59.4819 34.5671L60.9669 44.8901C61.1226 45.9858 61.0413 47.1022 60.7286 48.1638C60.4158 49.2254 59.8788 50.2075 59.1539 51.0438C58.429 51.8801 57.5331 52.551 56.5266 53.0113C55.5202 53.4717 54.4267 53.7106 53.3199 53.7121L12.2119 53.7521ZM43.4499 43.6521C44.0817 43.6521 44.6876 43.903 45.1343 44.3497C45.581 44.7964 45.8319 45.4023 45.8319 46.0341V48.9961H53.3199C53.7449 48.9937 54.1644 48.9001 54.5501 48.7217C54.9358 48.5433 55.2787 48.2842 55.5557 47.9619C55.8327 47.6396 56.0373 47.2616 56.1557 46.8535C56.2741 46.4453 56.3035 46.0165 56.2419 45.5961L54.7329 35.0521H10.7829L9.27394 45.5971C9.21498 46.0169 9.2466 46.4445 9.36666 46.8512C9.48673 47.2578 9.69247 47.634 9.97005 47.9545C10.2476 48.275 10.5906 48.5323 10.9759 48.7092C11.3612 48.8861 11.78 48.9785 12.2039 48.9801H19.6919V46.0341C19.6919 45.4023 19.9429 44.7964 20.3896 44.3497C20.8363 43.903 21.4422 43.6521 22.0739 43.6521C22.7057 43.6521 23.3116 43.903 23.7583 44.3497C24.205 44.7964 24.4559 45.4023 24.4559 46.0341V48.9961H30.3799V46.0341C30.3799 45.4023 30.6309 44.7964 31.0776 44.3497C31.5243 43.903 32.1302 43.6521 32.7619 43.6521C33.3937 43.6521 33.9996 43.903 34.4463 44.3497C34.893 44.7964 35.1439 45.4023 35.1439 46.0341V48.9961H41.0679V46.0341C41.0678 45.7212 41.1293 45.4113 41.249 45.1222C41.3686 44.8331 41.5441 44.5704 41.7653 44.3491C41.9865 44.1278 42.2491 43.9522 42.5382 43.8325C42.8272 43.7127 43.137 43.6511 43.4499 43.6511V43.6521ZM8.72594 19.0361C7.94175 19.0361 7.18957 19.347 6.63431 19.9008C6.07906 20.4545 5.76606 21.2059 5.76394 21.9901V27.3341C5.76394 27.723 5.84055 28.1082 5.98941 28.4676C6.13826 28.8269 6.35644 29.1535 6.63149 29.4285C6.90654 29.7036 7.23306 29.9217 7.59243 30.0706C7.9518 30.2194 8.33696 30.2961 8.72594 30.2961H56.7999C57.5852 30.2955 58.338 29.9832 58.8931 29.4278C59.4481 28.8724 59.7599 28.1193 59.7599 27.3341V21.9901C59.7599 21.2048 59.4481 20.4517 58.8931 19.8963C58.338 19.3409 57.5852 19.0286 56.7999 19.0281L8.72594 19.0361ZM32.7619 5.67206C30.3302 5.67437 27.9681 6.4843 26.0466 7.97465C24.1252 9.465 22.7531 11.5514 22.1459 13.9061L22.0459 14.2711H43.4899L43.3899 13.9061C42.7821 11.5487 41.4077 9.46038 39.4829 7.96975C37.5582 6.47912 35.1924 5.67082 32.7579 5.67206H32.7619Z" fill="#282828" stroke="white" stroke-width="1.3" stroke-linecap="round" stroke-linejoin="round"/>
</svg>
