<svg width="17" height="17" viewBox="0 0 17 17" fill="none" xmlns="http://www.w3.org/2000/svg">
<path d="M8.384 1C6.92359 1 5.49596 1.43307 4.28167 2.24443C3.06738 3.05579 2.12095 4.20902 1.56207 5.55827C1.0032 6.90752 0.856972 8.39219 1.14189 9.82455C1.4268 11.2569 2.13005 12.5726 3.16272 13.6053C4.19539 14.6379 5.5111 15.3412 6.94345 15.6261C8.37581 15.911 9.86048 15.7648 11.2097 15.2059C12.559 14.647 13.7122 13.7006 14.5236 12.4863C15.3349 11.272 15.768 9.84442 15.768 8.384C15.7675 6.42581 14.9893 4.54796 13.6047 3.16331C12.22 1.77865 10.3422 1.00053 8.384 1V1Z" stroke="white" stroke-width="1.3" stroke-miterlimit="10"/>
<path d="M8.384 3.46094V8.99893H12.076" stroke="white" stroke-width="1.3" stroke-linecap="round" stroke-linejoin="round"/>
</svg>
