<svg width="18" height="15" viewBox="0 0 18 15" xmlns="http://www.w3.org/2000/svg">
<path d="M18 1.72001C17.3252 2.0159 16.6106 2.21099 15.879 2.29901C16.6475 1.84257 17.2237 1.12208 17.5 0.272011C16.7745 0.700118 15.981 1.0008 15.154 1.16101C14.6477 0.625208 13.9928 0.252863 13.2735 0.091736C12.5541 -0.0693913 11.803 -0.0119589 11.1165 0.256668C10.43 0.525295 9.8394 0.992871 9.42043 1.59943C9.00146 2.20598 8.77322 2.92387 8.765 3.66101C8.76508 3.94266 8.79865 4.22329 8.865 4.49701C7.39874 4.4261 5.96364 4.04852 4.65233 3.38865C3.34103 2.72878 2.18266 1.80127 1.252 0.666008C0.776962 1.47312 0.631194 2.43223 0.84499 3.34403C1.05879 4.25583 1.6157 5.05018 2.4 5.562C1.81149 5.54762 1.23529 5.39045 0.721001 5.104V5.14901C0.7239 5.99786 1.02064 6.81952 1.5608 7.47434C2.10095 8.12916 2.85119 8.57674 3.684 8.741C3.36672 8.82646 3.03959 8.86984 2.711 8.87001C2.47798 8.87042 2.2455 8.84764 2.017 8.80201C2.2568 9.5322 2.71804 10.1696 3.33665 10.6257C3.95527 11.0817 4.70055 11.3339 5.469 11.347C4.15791 12.3672 2.54324 12.9195 0.882 12.916C0.587256 12.9162 0.292752 12.8992 0 12.865C1.58226 13.8773 3.40694 14.4468 5.28407 14.5145C7.1612 14.5821 9.02214 14.1452 10.6731 13.2495C12.3241 12.3537 13.7048 11.0317 14.6714 9.4211C15.6379 7.81054 16.1551 5.97031 16.169 4.09201C16.169 3.93301 16.169 3.77401 16.157 3.61901C16.8794 3.10062 17.5035 2.45755 18 1.72001Z"/>
</svg>
