<svg width="16" height="16" viewBox="0 0 16 16" xmlns="http://www.w3.org/2000/svg">
<path d="M11.333 16H4.667C3.73985 15.9993 2.8342 15.7206 2.067 15.2C1.56819 14.8638 1.13815 14.4355 0.800002 13.938C0.630798 13.6882 0.486126 13.4226 0.368002 13.145C0.124595 12.5719 -0.000574121 11.9556 1.97965e-06 11.333V4.66701C0.000740157 3.73985 0.279401 2.83421 0.800002 2.06701C1.13618 1.5682 1.56452 1.13816 2.062 0.80001C2.3118 0.6308 2.57737 0.486128 2.855 0.36801C3.42807 0.124602 4.04439 -0.000566492 4.667 9.60905e-06H11.333C12.2602 0.000747786 13.1658 0.279408 13.933 0.80001C14.4318 1.13619 14.8618 1.56453 15.2 2.06201C15.3692 2.31181 15.5139 2.57738 15.632 2.85501C15.8754 3.42807 16.0006 4.04439 16 4.66701V11.333C15.9993 12.2602 15.7206 13.1658 15.2 13.933C14.8638 14.4318 14.4355 14.8619 13.938 15.2C13.6882 15.3692 13.4226 15.5139 13.145 15.632C12.5719 15.8754 11.9556 16.0006 11.333 16ZM8 3.52501C7.11493 3.52501 6.24973 3.78746 5.51382 4.27918C4.77792 4.7709 4.20434 5.4698 3.86564 6.2875C3.52694 7.1052 3.43832 8.00497 3.61099 8.87304C3.78366 9.7411 4.20986 10.5385 4.8357 11.1643C5.46154 11.7902 6.25891 12.2164 7.12697 12.389C7.99504 12.5617 8.89481 12.4731 9.71251 12.1344C10.5302 11.7957 11.2291 11.2221 11.7208 10.4862C12.2125 9.75028 12.475 8.88508 12.475 8.00001C12.4734 6.81365 12.0014 5.67634 11.1626 4.83746C10.3237 3.99858 9.18636 3.5266 8 3.52501ZM12.333 2.66701C12.0678 2.66701 11.8134 2.77237 11.6259 2.9599C11.4384 3.14744 11.333 3.40179 11.333 3.66701C11.333 3.93223 11.4384 4.18658 11.6259 4.37412C11.8134 4.56165 12.0678 4.66701 12.333 4.66701C12.4641 4.66747 12.5941 4.6419 12.7153 4.59178C12.8365 4.54166 12.9465 4.46798 13.039 4.37501C13.1792 4.23515 13.2747 4.05681 13.3135 3.86259C13.3522 3.66837 13.3324 3.46703 13.2566 3.28408C13.1807 3.10114 13.0523 2.94483 12.8875 2.83497C12.7227 2.72511 12.529 2.66666 12.331 2.66701H12.333ZM8 10.984C7.40549 10.9848 6.82443 10.8071 6.332 10.474C5.85224 10.1501 5.47674 9.69403 5.251 9.16101C5.05766 8.7038 4.98163 8.20553 5.02983 7.71147C5.07803 7.21741 5.24893 6.74322 5.527 6.33201C5.8511 5.85308 6.30672 5.47803 6.839 5.25201C7.29601 5.0582 7.79422 4.98174 8.28831 5.02959C8.7824 5.07745 9.25669 5.2481 9.668 5.52601C10.1478 5.84989 10.5233 6.30599 10.749 6.83901C10.9426 7.29629 11.0188 7.79469 10.9708 8.28892C10.9228 8.78316 10.752 9.25756 10.474 9.66901C10.1501 10.1488 9.69402 10.5243 9.161 10.75C8.79368 10.9053 8.3988 10.9849 8 10.984Z"/>
</svg>
