<svg width="16" height="18" viewBox="0 0 16 18" fill="none" xmlns="http://www.w3.org/2000/svg">
<path d="M7.538 1.00156C6.10534 0.967441 4.71765 1.50304 3.67941 2.49085C2.64118 3.47865 2.0372 4.83797 2 6.27056C2 9.61656 5.692 14.9186 7.048 16.7506C7.10433 16.8278 7.17812 16.8907 7.26336 16.934C7.3486 16.9774 7.44287 17 7.5385 17C7.63412 17 7.7284 16.9774 7.81364 16.934C7.89888 16.8907 7.97267 16.8278 8.029 16.7506C9.385 14.9196 13.077 9.61956 13.077 6.27056C13.0398 4.8378 12.4357 3.47832 11.3972 2.49049C10.3588 1.50265 8.97084 0.967172 7.538 1.00156Z" stroke="white" stroke-width="1.3" stroke-linecap="round" stroke-linejoin="round"/>
<path d="M7.53802 8.38536C8.55753 8.38536 9.38402 7.55888 9.38402 6.53936C9.38402 5.51984 8.55753 4.69336 7.53802 4.69336C6.5185 4.69336 5.69202 5.51984 5.69202 6.53936C5.69202 7.55888 6.5185 8.38536 7.53802 8.38536Z" stroke="white" stroke-width="1.3" stroke-linecap="round" stroke-linejoin="round"/>
</svg>
