<svg width="16" height="17" viewBox="0 0 16 17" xmlns="http://www.w3.org/2000/svg">
<path fill-rule="evenodd" clip-rule="evenodd" d="M16 9C16.0003 7.47109 15.5625 5.9741 14.7385 4.68628C13.9144 3.39847 12.7385 2.37377 11.3501 1.73351C9.96173 1.09325 8.41893 0.864258 6.90442 1.07364C5.38991 1.28302 3.96712 1.922 2.80451 2.91494C1.6419 3.90787 0.788164 5.21316 0.344395 6.67626C-0.0993741 8.13935 -0.11459 9.69897 0.300545 11.1704C0.71568 12.6419 1.54378 13.9636 2.68679 14.9791C3.82981 15.9945 5.23986 16.6611 6.75 16.9V11.31H4.718V9H6.75V7.23701C6.70645 6.82536 6.75393 6.40917 6.88908 6.01791C7.02423 5.62665 7.24373 5.26989 7.53206 4.97288C7.82039 4.67587 8.17049 4.44587 8.55757 4.29918C8.94465 4.15249 9.35924 4.09268 9.772 4.124C10.372 4.13222 10.9706 4.18436 11.563 4.28001V6.25H10.554C10.3824 6.22794 10.208 6.24465 10.0436 6.29892C9.87932 6.35318 9.72927 6.44361 9.60453 6.56356C9.47979 6.6835 9.38354 6.82989 9.32288 6.99196C9.26222 7.15403 9.23868 7.32763 9.254 7.5V9H11.473L11.119 11.313H9.25V16.904C11.1321 16.6063 12.8461 15.6466 14.0835 14.1976C15.3209 12.7486 16.0005 10.9055 16 9Z"/>
</svg>
