<svg width="70" height="61" viewBox="0 0 70 61" fill="none" xmlns="http://www.w3.org/2000/svg">
<path d="M58.627 13.103L56.427 4.28098C56.3188 3.84506 56.0676 3.45797 55.7136 3.18153C55.3596 2.9051 54.9232 2.75527 54.474 2.75598C54.1422 2.75601 53.8156 2.83822 53.5233 2.99527C53.231 3.15232 52.9822 3.37931 52.799 3.65598L48.543 10.007C48.2578 10.4335 47.8203 10.7348 47.32 10.849L42.111 12.049C42.111 12.049 34.869 10.785 34.869 24.824C34.869 34.091 44.069 38.259 49.369 36.933C54.669 35.607 58.691 30.859 58.691 28.723V13.588C58.6895 13.4243 58.668 13.2614 58.627 13.103Z" fill="#FF4880"/>
<path d="M30.16 49.789C31.7856 49.7869 33.3485 49.1617 34.527 48.042C35.2718 48.7495 36.1771 49.2658 37.1652 49.5466C38.1533 49.8274 39.1948 49.8644 40.2004 49.6544C41.2059 49.4444 42.1455 48.9936 42.9386 48.3408C43.7317 47.6879 44.3547 46.8525 44.754 45.906C44.9593 45.4206 44.9633 44.8734 44.7652 44.385C44.5671 43.8965 44.183 43.5068 43.6975 43.3015C43.2121 43.0963 42.6649 43.0922 42.1765 43.2904C41.688 43.4885 41.2983 43.8726 41.093 44.358C40.8813 44.8682 40.4989 45.2889 40.0113 45.5482C39.5236 45.8074 38.961 45.8892 38.4197 45.7795C37.8784 45.6697 37.392 45.3753 37.0439 44.9465C36.6957 44.5178 36.5073 43.9813 36.511 43.429C36.5034 43.3138 36.4847 43.1996 36.455 43.088C36.8205 42.8311 37.14 42.5143 37.4 42.151L38.988 39.912C39.3865 39.4982 39.6456 38.9702 39.7291 38.4019C39.8126 37.8336 39.7164 37.2533 39.454 36.7424C39.1915 36.2314 38.7759 35.8153 38.2652 35.5522C37.7546 35.2891 37.1745 35.1922 36.606 35.275H32.416C31.8477 35.1922 31.2677 35.289 30.7572 35.552C30.2466 35.815 29.831 36.2309 29.5684 36.7417C29.3058 37.2525 29.2095 37.8326 29.2928 38.4008C29.3761 38.9691 29.6349 39.4971 30.033 39.911L31.621 42.15C31.8842 42.5134 32.2063 42.8301 32.574 43.087C32.564 43.1955 32.564 43.3046 32.574 43.413C32.5777 43.9653 32.3894 44.5018 32.0412 44.9305C31.6931 45.3593 31.2067 45.6537 30.6654 45.7635C30.1241 45.8732 29.5615 45.7914 29.0738 45.5322C28.5862 45.2729 28.2038 44.8522 27.992 44.342C27.8904 44.1016 27.7424 43.8836 27.5565 43.7004C27.3706 43.5173 27.1505 43.3725 26.9086 43.2744C26.6668 43.1763 26.4079 43.1268 26.147 43.1287C25.886 43.1306 25.6279 43.1839 25.3875 43.2855C25.1472 43.3872 24.9291 43.5352 24.746 43.7211C24.5628 43.907 24.418 44.1271 24.3199 44.369C24.2218 44.6108 24.1723 44.8696 24.1742 45.1306C24.1761 45.3916 24.2294 45.6496 24.331 45.89C24.8126 47.0404 25.6222 48.0235 26.6587 48.7168C27.6953 49.4102 28.913 49.7831 30.16 49.789Z" fill="#282828" stroke="white" stroke-width="1.3" stroke-linecap="round" stroke-linejoin="round"/>
<path d="M24.92 31.542C27.1567 31.542 28.97 29.7288 28.97 27.492C28.97 25.2553 27.1567 23.442 24.92 23.442C22.6832 23.442 20.87 25.2553 20.87 27.492C20.87 29.7288 22.6832 31.542 24.92 31.542Z" fill="#282828" stroke="white"/>
<path d="M44.144 31.542C46.3807 31.542 48.194 29.7288 48.194 27.492C48.194 25.2553 46.3807 23.442 44.144 23.442C41.9072 23.442 40.094 25.2553 40.094 27.492C40.094 29.7288 41.9072 31.542 44.144 31.542Z" fill="#282828" stroke="white"/>
<path d="M66.862 43.635L60.192 41.356C60.6806 39.8494 61.036 38.3028 61.254 36.734L66.312 35.392C66.9764 35.2162 67.5437 34.7836 67.8891 34.1895C68.2346 33.5954 68.3299 32.8884 68.154 32.224C67.9782 31.5597 67.5456 30.9924 66.9515 30.6469C66.3574 30.3015 65.6504 30.2062 64.986 30.382L61.46 31.319C61.3482 29.4393 61.0395 27.5764 60.539 25.761C60.0169 23.9059 59.7498 21.9883 59.745 20.061V5.05204C59.7573 4.20164 59.5122 3.3674 59.0417 2.65888C58.5713 1.95036 57.8976 1.40068 57.109 1.08204C56.601 0.874631 56.0578 0.766678 55.509 0.764038C54.9525 0.764819 54.4016 0.875363 53.8878 1.08934C53.3741 1.30332 52.9076 1.61653 52.515 2.01104C50.72 3.79004 47.981 6.50504 45.75 8.74504C42.0924 8.01977 38.3672 7.69087 34.639 7.76404C30.8689 7.69169 27.102 8.0246 23.403 8.75704C21.164 6.51804 18.424 3.79404 16.63 2.01604C16.238 1.62074 15.7719 1.30668 15.2583 1.09184C14.7447 0.877001 14.1937 0.765606 13.637 0.764038C13.067 0.764247 12.5027 0.877782 11.977 1.09804C11.1891 1.41643 10.5158 1.96549 10.0454 2.67323C9.57505 3.38096 9.32951 4.21432 9.34102 5.06404V20.064C9.33682 22.0597 9.06986 24.0461 8.54702 25.972C8.06388 27.6733 7.75002 29.4181 7.61002 31.181L4.75402 30.382C4.42032 30.2774 4.06888 30.2414 3.72091 30.2763C3.37293 30.3113 3.03564 30.4163 2.72938 30.5851C2.42311 30.754 2.15423 30.9831 1.93896 31.2587C1.72369 31.5344 1.56648 31.8507 1.47684 32.1888C1.38719 32.5268 1.36696 32.8795 1.41736 33.2256C1.46776 33.5716 1.58776 33.9039 1.7701 34.2023C1.95245 34.5007 2.19336 34.7591 2.47831 34.9619C2.76325 35.1646 3.08632 35.3076 3.42802 35.382L7.78702 36.533C8.01325 38.2368 8.40408 39.9147 8.95402 41.543L2.87702 43.635C2.53867 43.7311 2.22343 43.895 1.95055 44.1169C1.67766 44.3388 1.45284 44.6139 1.28981 44.9256C1.12678 45.2372 1.02896 45.5788 1.00231 45.9295C0.975668 46.2802 1.02076 46.6327 1.13483 46.9654C1.24891 47.2981 1.42957 47.6041 1.66581 47.8646C1.90204 48.1252 2.18889 48.3349 2.50884 48.4809C2.8288 48.627 3.17516 48.7063 3.52679 48.714C3.87842 48.7218 4.22793 48.6578 4.55402 48.526L11.054 46.303C13.1625 50.0302 16.1273 53.2024 19.7036 55.5577C23.2799 57.9131 27.3651 59.384 31.622 59.849C32.5954 59.9503 33.5734 60.0007 34.552 60C39.3624 60.0008 44.0851 58.7127 48.2289 56.2695C52.3726 53.8264 55.786 50.3176 58.114 46.108L65.179 48.495C65.8167 48.6765 66.4998 48.6063 67.0873 48.2991C67.6749 47.9918 68.1221 47.4708 68.3369 46.8435C68.5517 46.2162 68.5176 45.5305 68.2417 44.9276C67.9658 44.3246 67.4691 43.8506 66.854 43.603L66.862 43.635ZM55.84 38.172C55.713 38.696 55.57 39.212 55.403 39.72L53.021 38.926L55.84 38.172ZM16.685 38.91L13.731 39.91C13.509 39.235 13.318 38.6 13.175 37.965L16.685 38.91ZM26.468 41.03C26.6025 40.9798 26.7326 40.9186 26.857 40.847L27.008 40.747L27.238 40.58L27.381 40.453C27.4566 40.3777 27.5281 40.2982 27.595 40.215L27.682 40.104C27.7516 40.0079 27.8154 39.9077 27.873 39.804L27.929 39.704C27.9819 39.5854 28.027 39.4635 28.064 39.339V39.22C28.1022 39.0666 28.1259 38.9099 28.135 38.752C28.138 38.7017 28.138 38.6513 28.135 38.601H27.897L28.127 38.474C28.1319 38.3948 28.1319 38.3153 28.127 38.236C28.105 38.1102 28.0759 37.9857 28.04 37.863C28.0434 37.8208 28.0434 37.7783 28.04 37.736C27.9862 37.5787 27.9172 37.427 27.834 37.283C27.7864 37.2028 27.7333 37.1259 27.675 37.053L27.484 37.196L27.611 36.966L27.532 36.866C27.4695 36.7981 27.4027 36.7343 27.332 36.675L27.173 36.858L27.26 36.612L27.16 36.525C27.051 36.4466 26.9371 36.3751 26.819 36.311L26.732 36.263C26.5773 36.1859 26.4151 36.1246 26.248 36.08L12.63 32.48C12.665 30.7287 12.9104 28.9878 13.361 27.295C14.0085 24.9388 14.3423 22.5075 14.354 20.064V6.93404C16.117 8.68904 18.324 10.857 20.087 12.643C20.8884 13.4421 21.9724 13.893 23.104 13.898C23.4879 13.8975 23.8698 13.844 24.239 13.739C27.6328 13.0332 31.0967 12.7214 34.562 12.81C38.0043 12.7339 41.4446 13.0357 44.821 13.71C45.1953 13.8167 45.5828 13.8702 45.972 13.869C47.1036 13.864 48.1877 13.4131 48.989 12.614C50.76 10.843 52.959 8.64404 54.714 6.90504V20.064C54.7062 22.4474 55.0225 24.8208 55.654 27.119C56.1568 28.9298 56.4236 30.7979 56.448 32.677L43.469 36.099C43.3078 36.1422 43.151 36.2008 43.001 36.274C42.9158 36.3189 42.8336 36.3693 42.755 36.425L42.89 36.625L42.684 36.474L42.584 36.538C42.5197 36.5871 42.4586 36.6402 42.401 36.697L42.568 36.864L42.314 36.777L42.214 36.877C42.1683 36.93 42.1259 36.9858 42.087 37.044L42.287 37.179H42.017C41.9805 37.2244 41.9471 37.2722 41.917 37.322C41.8308 37.4708 41.7591 37.6275 41.703 37.79C41.6836 37.8528 41.6676 37.9165 41.655 37.981C41.6249 38.0794 41.6012 38.1796 41.584 38.281C41.5789 38.3576 41.5789 38.4345 41.584 38.511H41.822L41.584 38.63C41.5807 38.683 41.5807 38.7361 41.584 38.789C41.596 38.9577 41.6225 39.1249 41.663 39.289V39.389C41.6976 39.5055 41.74 39.6194 41.79 39.73L41.861 39.865C41.9112 39.9583 41.967 40.0485 42.028 40.135L42.139 40.27C42.2017 40.345 42.2684 40.4165 42.339 40.484L42.474 40.603C42.5598 40.6752 42.65 40.742 42.744 40.803L42.863 40.874C43.0004 40.9522 43.1439 41.019 43.292 41.074L53.218 44.474C52.1162 46.2835 50.7573 47.9233 49.184 49.342C45.1836 52.9909 39.9565 55.0007 34.542 54.972C33.7464 54.9705 32.9513 54.9281 32.16 54.845C28.8626 54.476 25.6913 53.3658 22.8837 51.5977C20.076 49.8296 17.7046 47.4493 15.947 44.635L26.468 41.03Z" fill="#282828" stroke="white" stroke-width="1.5" stroke-linecap="round" stroke-linejoin="round"/>
</svg>
