<svg width="18" height="18" viewBox="0 0 18 18" fill="none" xmlns="http://www.w3.org/2000/svg">
<path d="M16.5 13.5368C15.6424 12.8017 14.6997 12.1722 13.692 11.6618C12.757 11.1908 12.681 11.1528 11.946 11.6988C11.456 12.0628 11.13 12.3888 10.557 12.2658C9.45029 11.8712 8.45273 11.2201 7.64604 10.3658C6.78043 9.54885 6.11633 8.54209 5.70604 7.4248C5.58304 6.8528 5.91404 6.5318 6.27504 6.0398C6.78304 5.3478 6.74504 5.2318 6.31004 4.2978C5.80949 3.28547 5.17698 2.34394 4.42904 1.4978C3.76804 0.844796 3.76804 0.960799 3.34304 1.1378C2.99656 1.28379 2.66417 1.46119 2.35004 1.6678C1.8336 1.95861 1.41575 2.397 1.15004 2.9268C0.91104 3.4368 0.804037 4.6338 2.03704 6.8748C3.03745 8.80288 4.35212 10.5508 5.92704 12.0468C7.44587 13.5948 9.19236 14.9015 11.106 15.9218C13.597 17.3168 14.552 17.0448 15.064 16.8068C15.5945 16.5443 16.0343 16.1292 16.327 15.6148C16.5341 15.3011 16.7119 14.9691 16.858 14.6228C17.038 14.1978 17.154 14.1978 16.5 13.5368Z" stroke="white" stroke-width="1.3" stroke-miterlimit="10"/>
</svg>
