<svg width="59" height="59" viewBox="0 0 59 59" fill="none" xmlns="http://www.w3.org/2000/svg">
<path d="M55.538 26.863C54.9052 20.9524 52.2683 15.4364 48.0658 11.2323C43.8633 7.02814 38.3484 4.38911 32.438 3.75398L29.8 3.45398V14.174C29.7955 18.3211 28.146 22.2971 25.2136 25.2296C22.2811 28.162 18.3051 29.8115 14.158 29.816H3.43799L3.71599 32.444C4.35021 38.3607 6.99262 43.8815 11.203 48.0866C15.4134 52.2917 20.9375 54.9272 26.855 55.554L29.483 55.864V45.134C29.4893 40.9879 31.1397 37.0135 34.0722 34.0826C37.0047 31.1516 40.9799 29.5032 45.126 29.499H55.846L55.538 26.863Z" fill="#FF4880"/>
<path d="M29.586 58.315C22.009 58.3005 14.7465 55.2841 9.3887 49.9263C4.03094 44.5685 1.01454 37.306 1 29.729V29.59C1.01348 22.0123 4.02941 14.7488 9.38729 9.39012C14.7452 4.03149 22.0083 1.01454 29.586 1H29.729C37.2772 1.01427 44.5147 4.00771 49.8677 9.32946C55.2207 14.6512 58.2565 21.871 58.315 29.419V29.895C58.2568 37.4432 55.2211 44.6632 49.868 49.9852C44.515 55.3072 37.2774 58.3007 29.729 58.315H29.602H29.586ZM45.126 32.115C41.6742 32.119 38.3648 33.4916 35.9235 35.932C33.4822 38.3723 32.1083 41.6812 32.103 45.133V53.272H32.365C37.6903 52.6573 42.6507 50.2579 46.4385 46.4646C50.2262 42.6712 52.6182 37.7072 53.225 32.381V32.119L45.126 32.115ZM6.059 32.377C6.66925 37.6996 9.06296 42.659 12.8505 46.4481C16.6381 50.2371 21.5966 52.6327 26.919 53.245H27.181V45.133C27.1874 40.3765 29.0801 35.8168 32.4441 32.4542C35.8081 29.0915 40.3685 27.2005 45.125 27.196H53.256V26.934C52.6429 21.6089 50.2447 16.6483 46.4521 12.8604C42.6594 9.07248 37.6959 6.68045 32.37 6.074H32.108V14.174C32.1038 18.9308 30.2127 23.4917 26.8498 26.8559C23.4869 30.2201 18.9268 32.1129 14.17 32.119H6.034L6.059 32.377ZM26.919 6.077C21.599 6.68859 16.6424 9.08189 12.8551 12.8677C9.06783 16.6536 6.67263 21.6093 6.059 26.929V27.19H14.17C17.6194 27.1826 20.9253 25.8086 23.3638 23.3688C25.8022 20.9291 27.1745 17.6224 27.18 14.173V6.042L26.919 6.077Z" fill="#282828" stroke="white" stroke-width="1.3" stroke-linecap="round" stroke-linejoin="round"/>
</svg>
